#!OML:ASF I:\golf\golf\golf 2\Subject 1\2002-09-07\Subject1.ASF
:FULLY-SPECIFIED
:DEGREES
423
root -0.242103 17.8181 -4.49851 41.4208 25.5666 9.44122
lowerback 34.8845 3.65647 6.1837
upperback 12.4694 7.647 10.645
thorax -4.64981 3.59124 5.29935
lowerneck -15.5369 -10.2475 -1.3217
upperneck 4.96043 -13.4021 -1.50146
head 3.91396 -6.77896 -1.28724
rclavicle -4.45278e-014 -1.15295e-014
rhumerus 19.2236 7.68212 -42.5701
rradius 32.9085
rwrist -10.3678
rhand -19.2932 12.1965
rfingers 7.12502
rthumb 7.02211 -17.667
lclavicle -4.45278e-014 -1.15295e-014
lhumerus -35.3311 -37.4143 108.735
lradius 73.5133
lwrist -2.49758
lhand -34.168 30.5501
lfingers 7.12502
lthumb -7.34175 60.4027
rfemur -68.2023 -10.5787 17.7782
rtibia 39.4886
rfoot -2.77754 3.63451
rtoes 6.09976
lfemur -40.4121 -8.6386 -18.064
ltibia 24.8826
lfoot -13.7267 -14.1136
ltoes -2.96166
424
root -0.198782 17.8217 -4.55558 40.6877 25.427 9.10469
lowerback 34.2123 3.63761 6.03658
upperback 12.3414 7.51869 10.5875
thorax -4.54958 3.54035 5.38358
lowerneck -15.9688 -10.1678 -1.41686
upperneck 5.7729 -13.2459 -1.5445
head 4.23792 -6.69556 -1.32904
rclavicle -6.04305e-014 -4.29375e-014
rhumerus 18.2435 8.55142 -43.0519
rradius 33.0612
rwrist -11.1383
rhand -19.9584 11.6724
rfingers 7.12502
rthumb 6.37994 -18.2115
lclavicle -6.04305e-014 -4.29375e-014
lhumerus -35.236 -37.2407 108.62
lradius 72.9983
lwrist -2.72633
lhand -33.9253 30.4139
lfingers 7.12502
lthumb -7.10749 60.2746
rfemur -67.6412 -10.4408 17.7638
rtibia 39.3617
rfoot -2.59317 3.67147
rtoes 5.31048
lfemur -39.9633 -8.52976 -18.1979
ltibia 25.1525
lfoot -14.062 -13.8721
ltoes -2.48722
425
root -0.155546 17.8221 -4.61396 39.9076 25.2805 8.71597
lowerback 33.686 3.48654 5.96911
upperback 12.1529 7.26704 10.4493
thorax -4.53139 3.42929 5.37507
lowerneck -16.3754 -9.97742 -1.56121
upperneck 6.61864 -12.9299 -1.58168
head 4.57457 -6.53389 -1.34782
rclavicle -2.22639e-014 7.39479e-014
rhumerus 17.3224 9.20943 -44.0786
rradius 33.1196
rwrist -11.35
rhand -20.9711 11.5584
rfingers 7.12502
rthumb 5.40228 -18.3527
lclavicle -2.22639e-014 7.39479e-014
lhumerus -35.1347 -36.7071 108.302
lradius 72.6735
lwrist -2.24311
lhand -33.2061 30.3328
lfingers 7.12502
lthumb -6.41315 60.2157
rfemur -67.0381 -10.3185 17.8588
rtibia 39.1703
rfoot -2.30469 3.77158
rtoes 4.4482
lfemur -39.4848 -8.45036 -18.258
ltibia 25.4086
lfoot -14.3524 -13.6171
ltoes -1.60564
426
root -0.11302 17.8248 -4.67546 39.1791 25.0743 8.35005
lowerback 33.0789 3.42098 5.85864
upperback 11.9789 7.09695 10.3223
thorax -4.47768 3.35666 5.37607
lowerneck -16.7844 -9.81993 -1.52032
upperneck 7.40739 -12.6777 -1.82082
head 4.86953 -6.41487 -1.45446
rclavicle -2.8625e-014 4.05521e-014
rhumerus 16.3712 9.711 -44.8836
rradius 33.1678
rwrist -11.8964
rhand -21.5833 11.9208
rfingers 7.12502
rthumb 4.81117 -18.0046
lclavicle -2.8625e-014 4.05521e-014
lhumerus -35.0293 -36.3965 108.121
lradius 72.2234
lwrist -2.17819
lhand -33.035 30.6756
lfingers 7.12502
lthumb -6.24804 60.5634
rfemur -66.4763 -10.1775 17.9132
rtibia 38.9382
rfoot -2.03938 3.86605
rtoes 4.11167
lfemur -39.0465 -8.39967 -18.3341
ltibia 25.6424
lfoot -14.4596 -13.2489
ltoes -0.579698
427
root -0.0705194 17.831 -4.73435 38.4361 24.8519 7.95722
lowerback 32.4668 3.37501 5.74802
upperback 11.7916 6.95126 10.1881
thorax -4.43328 3.29479 5.36059
lowerneck -17.1262 -9.70601 -1.49392
upperneck 8.11288 -12.4991 -1.91214
head 5.13973 -6.3237 -1.51404
rclavicle 1.59028e-014 -6.36111e-015
rhumerus 15.4071 10.0782 -45.8338
rradius 33.162
rwrist -12.6127
rhand -21.6728 12.0261
rfingers 7.12502
rthumb 4.72472 -17.9012
lclavicle 1.59028e-014 -6.36111e-015
lhumerus -34.9195 -36.1315 107.938
lradius 71.6875
lwrist -2.04958
lhand -32.8102 30.7902
lfingers 7.12502
lthumb -6.03094 60.6844
rfemur -65.8799 -9.93331 17.8904
rtibia 38.6961
rfoot -1.84299 3.86941
rtoes 4.74617
lfemur -38.6049 -8.32081 -18.3866
ltibia 25.9219
lfoot -14.7275 -12.7914
ltoes -0.521494
428
root -0.025566 17.8354 -4.7929 37.715 24.7148 7.62867
lowerback 31.9674 3.21655 5.74081
upperback 11.5244 6.71462 10.0101
thorax -4.48937 3.1887 5.26639
lowerneck -17.5772 -9.6009 -1.66607
upperneck 9.03062 -12.3145 -1.73176
head 5.52629 -6.21231 -1.47552
rclavicle 9.22361e-014 1.90833e-014
rhumerus 14.4097 10.4031 -47.0621
rradius 33.1354
rwrist -13.3654
rhand -21.5293 11.8893
rfingers 7.12502
rthumb 4.86331 -18.0349
lclavicle 9.22361e-014 1.90833e-014
lhumerus -34.8183 -35.7934 107.7
lradius 71.1389
lwrist -1.80529
lhand -32.315 30.986
lfingers 7.12502
lthumb -5.55291 60.8932
rfemur -65.2717 -9.85293 17.907
rtibia 38.4493
rfoot -1.68324 3.9497
rtoes 5.50249
lfemur -38.1604 -8.19101 -18.5172
ltibia 26.1994
lfoot -15.1197 -12.4737
ltoes -1.46896
